<?xml version="1.0" encoding="UTF-8"?>
<svg xmlns="http://www.w3.org/2000/svg" width="862" height="197" viewBox="0 0 862 197" fill="none"><path d="M538.575 106.705C538.575 119.519 528.271 129.925 515.582 129.925C502.892 129.925 492.588 119.519 492.588 106.705V59.1094H475.701V106.705C475.701 128.865 493.542 146.978 515.582 146.978C537.621 146.978 555.462 128.961 555.462 106.705V59.1094H538.575V106.705V106.705Z" fill="black"/><path d="M40.8315 59.1064C32.2449 59.1064 24.326 61.9005 17.8383 66.5252V0.238281H0.951172V146.975H17.8383V99.3796C17.8383 86.5654 28.1423 76.1599 40.8315 76.1599C53.5207 76.1599 63.8248 86.5654 63.8248 99.3796V146.975H80.7119V98.2234H80.6165C79.9486 76.5453 62.3936 59.1064 40.8315 59.1064Z" fill="black"/><path d="M123.457 61.8047H106.57V146.976H123.457V61.8047Z" fill="black"/><path d="M417.121 59.1094H415.689V147.171H432.577V76.1628H455.951V59.1094H432.577H417.121Z" fill="black"/><path d="M375.329 34.1445H358.441V147.16H375.329V76.1519H396.7V59.0985H375.329V34.1445Z" fill="black"/><path d="M696.854 59.0985H675.483V34.1445H658.691V147.16H675.483V76.1519H696.854V59.0985Z" fill="black"/><path d="M295.57 59.1064C286.983 59.1064 279.064 61.9005 272.577 66.5252V0.238281H255.689V146.975H272.577V99.3796C272.577 86.5654 282.881 76.1599 295.57 76.1599C308.259 76.1599 318.563 86.5654 318.563 99.3796V146.975H335.45V98.2234H335.355C334.687 76.5453 317.132 59.1064 295.57 59.1064Z" fill="black"/><path d="M707.066 127.805C701.437 127.805 696.857 132.429 696.857 138.114C696.857 143.798 701.437 148.423 707.066 148.423C712.695 148.423 717.275 143.798 717.275 138.114C717.275 132.333 712.695 127.805 707.066 127.805Z" fill="black"/><path d="M615.569 94.3642L601.258 91.4738C597.919 90.703 595.248 89.3541 593.339 87.4272C591.336 85.4039 590.286 82.7062 590.286 79.6231C590.286 76.0582 591.813 72.9751 594.77 70.3737C597.633 67.9651 601.354 66.7125 605.838 66.7125C609.177 66.7125 612.135 67.2906 614.52 68.3504C616.905 69.4103 618.813 70.7591 620.34 72.397C621.866 74.0349 623.011 75.7692 623.774 77.6961C624.156 78.6596 624.442 79.5267 624.728 80.3938L639.994 75.9619C639.517 74.2276 638.849 72.2043 637.895 70.0847C636.654 67.2906 634.651 64.5929 632.075 61.9915C629.403 59.3901 625.969 57.2705 621.771 55.4399C617.573 53.7057 612.325 52.7422 606.029 52.7422C601.354 52.7422 597.06 53.513 593.149 55.0545C589.237 56.5961 585.707 58.7157 582.845 61.3171C579.982 63.9185 577.597 67.0016 575.975 70.4701C574.353 73.8422 573.495 77.5998 573.495 81.3573C573.495 87.5235 575.498 92.919 579.41 97.5437C583.322 102.168 589.332 105.444 597.251 107.178L611.181 110.261C615.283 111.129 618.432 112.574 620.435 114.693C622.629 116.909 623.679 119.607 623.679 122.69C623.679 126.255 622.248 129.338 619.481 131.843C616.714 134.348 612.707 135.601 607.651 135.601C601.067 135.601 595.915 133.77 592.385 130.109C589.523 127.122 587.615 123.75 586.852 119.896L571.109 124.328C571.491 126.351 572.254 128.664 573.399 131.072C574.83 134.156 577.025 137.142 579.887 139.84C582.749 142.538 586.565 144.946 591.05 146.777C595.534 148.608 601.163 149.571 607.746 149.571C613.375 149.571 618.432 148.704 622.629 146.97C626.827 145.236 630.357 143.02 633.124 140.322C635.796 137.624 637.895 134.541 639.23 131.169C640.566 127.797 641.329 124.425 641.329 121.149C641.329 114.693 639.23 109.009 634.937 104.192C630.357 99.5669 623.965 96.1948 615.569 94.3642Z" fill="black"/><path d="M737.594 59.1094V147.556H754.481V59.1094H737.594Z" fill="black"/><path d="M844.166 0.238281V67.874C836.342 61.4188 826.229 57.4685 815.353 57.4685C790.165 57.4685 769.652 78.1832 769.652 103.619C769.652 129.055 790.165 149.769 815.353 149.769C826.229 149.769 836.342 145.819 844.166 139.364V147.457H861.053V0.238281H844.166ZM815.353 132.716C799.419 132.716 786.54 119.613 786.54 103.619C786.54 87.5289 799.515 74.522 815.353 74.522C831.286 74.522 844.166 87.6252 844.166 103.619C844.166 119.709 831.286 132.716 815.353 132.716Z" fill="black"/><path d="M224.684 145.812C219.437 149.859 212.949 153.617 204.935 156.796C204.839 156.796 204.839 156.989 204.935 156.989C216.288 159.494 223.539 164.022 226.688 170.477C232.031 181.654 224.303 196.298 224.207 196.491H242.525C245.197 188.302 247.677 175.295 242.048 163.155C238.518 155.736 232.794 149.955 224.684 145.812Z" fill="black"/><path d="M155.13 196.398C155.034 196.205 147.402 181.56 152.649 170.384C155.893 163.447 164.003 158.822 176.596 156.413C228.021 146.779 235.654 119.32 235.654 103.615C235.654 77.9868 215.046 57.1758 189.667 57.1758C164.289 57.1758 143.681 77.9868 143.681 103.808C143.681 112.864 146.257 126.064 158.755 137.337C163.621 135.313 169.059 133.675 175.165 132.616C176.883 132.327 178.6 131.941 180.413 131.556C169.25 125.871 160.759 117.104 160.759 103.712C160.759 87.5252 173.829 74.4219 189.763 74.4219C205.791 74.4219 218.766 87.6215 218.766 103.904C218.766 126.546 194.247 135.795 173.639 139.649C155.32 143.021 143.204 150.922 137.479 163.158C131.755 175.201 134.235 188.304 137.002 196.494H155.13V196.398Z" fill="black"/></svg>